HIERARCHY
ROOT pelvis
{
  OFFSET 0 100 0
  CHANNELS 6 Xposition Yposition Zposition Zrotation Xrotation Yrotation
  JOINT pelvis_right_femur
  {
    OFFSET -10.78128 -3.44521 -0.5502486
    CHANNELS 3 Zrotation Xrotation Yrotation
    JOINT right_femur_tibia
    {
      OFFSET -0.8047443 -44.0398 -0.1307829
      CHANNELS 3 Zrotation Xrotation Yrotation
      JOINT right_tibia_foot
      {
        OFFSET 3.006224 -47.83518 -5
        CHANNELS 3 Zrotation Xrotation Yrotation
        End Site
        {
          OFFSET 0 -5 15
        }
      }
    }
  }
  JOINT pelvis_left_femur
  {
    OFFSET 10.78128 -3.44521 -0.5502486
    CHANNELS 3 Zrotation Xrotation Yrotation
    JOINT left_femur_tibia
    {
      OFFSET 0.8047443 -44.0398 -0.1307829
      CHANNELS 3 Zrotation Xrotation Yrotation
      JOINT left_tibia_foot
      {
        OFFSET -4.370144 -48.10324 -4.275266
        CHANNELS 3 Zrotation Xrotation Yrotation
        End Site
        {
          OFFSET 0 -5 15
        }
      }
    }
  }
  JOINT pelvis_spine1
  {
    OFFSET 0 6.468898 -3.129235
    CHANNELS 3 Zrotation Xrotation Yrotation
    JOINT spine1
    {
      OFFSET 0 23.15396 4.99043
      CHANNELS 3 Zrotation Xrotation Yrotation
      JOINT spine2
      {
        OFFSET 0 20.79997 -5.064912
        CHANNELS 3 Zrotation Xrotation Yrotation
        JOINT neck
        {
          OFFSET 0 14.38658 9.616178
          CHANNELS 3 Zrotation Xrotation Yrotation
          End Site
          {
            OFFSET 0 20 0
          }
        }
      }
      JOINT right_manubrium
      {
        OFFSET -5.722621 16.35077 3.967754
        CHANNELS 3 Zrotation Xrotation Yrotation
        JOINT right_clavicle
        {
          OFFSET -13.16364 1.694482 -4.693211
          CHANNELS 3 Zrotation Xrotation Yrotation
          JOINT right_humerus
          {
            OFFSET -28.5034 -0.3100689 -2.792744
            CHANNELS 3 Zrotation Xrotation Yrotation
            JOINT right_radius
            {
              OFFSET -25.15693 0.02248979 -1.271978
              CHANNELS 3 Zrotation Xrotation Yrotation
              End Site
              {
                OFFSET -15 0 0
              }
            }
          }
        }
      }
      JOINT left_manubrium
      {
        OFFSET 5.722621 16.35077 3.967754
        CHANNELS 3 Zrotation Xrotation Yrotation
        JOINT left_clavicle
        {
          OFFSET 13.16364 1.694482 -4.693211
          CHANNELS 3 Zrotation Xrotation Yrotation
          JOINT left_humerus
          {
            OFFSET 29.39168 -1.063119 -2.237045
            CHANNELS 3 Zrotation Xrotation Yrotation
            JOINT left_radius
            {
              OFFSET 24.59957 -0.9528479 0.9047498
              CHANNELS 3 Zrotation Xrotation Yrotation
              End Site
              {
                OFFSET 15 -0 -0
              }
            }
          }
        }
      }
    }
  }
}
MOTION
Frames: 18
Frame Time: 0.0416666666667
38.87066 105.1149 240.6648 2.14064 -6.19192 5.978847 1.453588 10.15186 7.053028 2.138888e-06 36.45822 8.068504e-06 3.964292 -10.466 -3.17454 -3.437412 -14.56147 -9.397422 1.100873e-05 19.9414 2.809949e-06 -8.080825 -11.20633 18.5597 -1.113111 -0.6559408 8.110306 -1.787309 9.41073 -3.233249 2.463932 21.28784 5.261567 2.560112 -16.63182 6.972396 2.190482 -21.04801 10.62265 82.48564 22.89104 -9.160819 -6.356115e-06 4.401982e-07 25.25255 -21.01456 10.21019 11.42385 4.817787 -15.13259 -2.820891 -94.77798 26.70433 26.11307 3.276667e-07 -2.346629e-06 -12.46746 -4.957934 6.296638 20.22329
40.55367 105.647 246.7804 2.467515 -6.671161 6.376207 0.8404279 8.355191 7.05038 1.573098e-06 43.24672 7.546351e-06 3.757693 -8.805279 -3.79048 -4.432446 -11.30492 -10.31548 1.217951e-05 21.12679 -1.915161e-06 -7.585601 -11.54865 18.40086 -1.446139 -0.8341862 7.634086 -1.878263 9.434316 -3.439335 2.468803 21.63619 5.38833 2.565404 -16.43832 7.145377 2.452858 -20.19605 10.49835 83.20283 23.11461 -10.20143 -5.385062e-06 5.182819e-07 23.70026 -20.59733 9.991493 10.78846 4.535738 -15.21417 -3.045772 -93.68403 27.29858 24.6588 -7.316634e-07 -2.217257e-06 -12.57239 -4.69751 6.578084 20.005
42.17465 106.4762 252.5563 2.785469 -7.363271 7.022482 0.3345463 5.029414 6.923534 1.538467e-06 49.88216 5.115211e-06 3.360075 -7.587227 -4.713279 -5.220373 -7.457597 -11.11383 1.342041e-05 21.36671 -8.315083e-06 -7.0154 -12.42752 18.06065 -1.759611 -0.6649597 6.924518 -1.905062 9.46787 -3.800019 2.455694 22.07575 5.494502 2.465738 -16.13701 7.363489 2.662103 -19.32921 10.37962 84.25138 23.34434 -11.44051 -4.335355e-06 5.758513e-07 22.09953 -20.04079 9.936602 10.1069 4.300415 -15.47382 -3.413106 -92.32971 28.01157 22.6576 -1.668171e-06 -2.21802e-06 -13.09515 -4.411047 6.869202 19.71936
43.6841 107.442 257.8834 2.9607 -7.940343 7.849874 0.1502472 0.5161762 6.70584 3.154936e-06 54.20307 7.136191e-07 2.633855 -7.295999 -5.748515 -5.641324 -3.16119 -11.7817 1.527797e-05 21.01364 -1.441614e-05 -6.470133 -13.50201 17.52251 -1.945392 -0.3047497 6.038282 -1.754081 9.401273 -4.318901 2.439481 22.45962 5.51208 2.252452 -15.86991 7.586162 2.794884 -18.45474 10.22258 85.27307 23.66065 -12.81735 -3.026762e-06 7.651262e-07 20.4328 -19.05943 10.04213 9.269383 4.1472 -15.87413 -3.767655 -90.65858 28.74258 20.23591 -2.538897e-06 -1.926129e-06 -14.00464 -4.009473 7.300959 19.19087
45.11257 108.3377 262.9921 2.994039 -8.225976 8.804622 0.2045087 -4.262501 6.223068 3.018936e-06 55.28746 -1.556736e-06 1.942883 -7.202622 -6.722543 -5.69737 0.9365699 -12.02341 1.357976e-05 19.61132 -2.005816e-05 -6.324157 -14.85552 16.77273 -1.985709 0.1105266 5.155131 -1.524796 9.207102 -4.863421 2.47084 22.75509 5.483366 2.027993 -15.70378 7.802045 2.667403 -17.70705 9.999839 86.53309 23.72599 -14.16959 -2.175488e-06 3.81451e-07 18.97753 -18.35091 10.24595 8.669741 4.237271 -16.40608 -4.063083 -89.24665 29.24712 17.78143 -2.71091e-06 -1.850864e-06 -15.30891 -3.63079 7.656246 18.66268
46.41404 108.8824 267.7462 3.003905 -8.335458 9.789915 0.43648 -9.191834 5.761418 5.562243e-06 52.82674 -5.790686e-06 1.176349 -7.586761 -7.548221 -5.572069 4.502728 -12.20526 1.241954e-05 17.40958 -1.959139e-05 -5.948449 -16.44634 16.46145 -2.036142 0.6202537 4.337716 -1.154498 9.01223 -5.394588 2.465555 22.91552 5.473679 1.870333 -15.58078 7.941926 2.517234 -17.06142 9.838619 87.12258 23.87876 -15.30675 -1.597108e-06 4.699952e-07 17.52651 -17.55494 10.35527 8.120269 4.568711 -17.07277 -4.29305 -87.58417 29.48683 15.14645 -2.393996e-06 -1.698853e-06 -16.86812 -3.092924 8.145865 17.80858
47.60695 108.9791 272.436 2.930795 -8.119584 10.71163 0.7444135 -13.62974 5.164188 6.06784e-06 47.24392 -6.847181e-06 0.5802872 -8.07246 -8.240513 -5.298646 7.781995 -12.07805 9.340175e-06 15.10538 -1.757423e-05 -5.948842 -18.02665 16.15556 -2.041666 0.9873096 3.638496 -0.7323466 8.667964 -5.891046 2.513472 23.0241 5.437763 1.774785 -15.51483 8.038104 2.212543 -16.3881 9.607212 87.75554 23.91693 -16.45042 -1.216072e-06 3.046398e-07 16.04626 -17.05591 10.43973 7.732511 5.132238 -17.82735 -4.37218 -86.1366 29.52462 12.4072 -1.632245e-06 -1.519172e-06 -18.76427 -2.558686 8.566584 16.94291
48.71775 108.6233 277.3196 2.833878 -7.662635 11.51634 1.017778 -17.22831 4.490897 4.942813e-06 39.82131 -5.284327e-06 0.1665311 -8.540482 -8.783744 -5.027407 10.72717 -11.73919 4.983768e-06 13.39893 -1.548818e-05 -6.21674 -19.40235 15.91135 -2.061677 1.130179 3.106723 -0.3107645 8.233815 -6.335918 2.601768 23.13944 5.39169 1.756979 -15.48568 8.087556 1.838504 -15.65309 9.335914 88.48341 23.91794 -17.6566 -9.169398e-07 -6.518039e-08 14.47012 -16.84906 10.4743 7.446132 5.826017 -18.64035 -4.314166 -84.94441 29.42114 9.657848 -6.361945e-07 -1.314876e-06 -20.88311 -2.025195 8.937345 16.09706
49.69907 107.8063 282.2524 2.773994 -7.213297 12.17609 1.251572 -20.49813 3.903382 5.578255e-06 32.20573 -4.977973e-06 -0.3653129 -9.255886 -9.165599 -4.839089 13.30849 -11.53966 4.371924e-06 12.37233 -1.116782e-05 -6.222828 -20.58319 15.9273 -2.133452 1.241358 2.661404 0.1195913 7.840559 -6.730635 2.63979 23.27772 5.387329 1.788036 -15.46043 8.099489 1.577541 -14.89309 9.134647 88.85406 24.10349 -18.82576 -4.453302e-07 2.067371e-07 12.74481 -16.46707 10.36343 7.034265 6.49463 -19.47137 -4.227329 -83.59853 29.25587 6.881213 1.94262e-07 -7.77679e-07 -23.01468 -1.340235 9.437226 15.04735
50.56499 106.7092 287.302 2.666367 -6.693972 12.68413 1.422543 -22.86312 3.307914 5.340808e-06 25.61506 -3.768196e-06 -1.068879 -10.00211 -9.337719 -4.707578 15.48424 -11.36951 4.80583e-06 12.57121 -9.47938e-06 -6.263431 -21.1803 15.80378 -2.179231 1.176206 2.307251 0.4947334 7.426199 -7.059791 2.662611 23.45393 5.368583 1.819691 -15.51342 8.092662 1.364846 -14.11435 8.928429 89.21059 24.40969 -19.94462 3.81816e-07 4.810497e-07 10.97488 -15.99754 10.20082 6.546468 6.986129 -20.19255 -4.079836 -82.37921 29.11973 4.447993 6.71269e-07 6.382156e-08 -24.86768 -0.5935414 9.996229 13.9762
51.3441 105.5449 292.5068 2.51345 -6.286438 13.0891 1.568232 -24.34553 2.856171 4.759966e-06 21.48836 -2.605039e-06 -1.897923 -10.62215 -9.469191 -4.600815 17.37344 -11.30674 5.592158e-06 13.89019 -1.068777e-05 -6.41084 -21.14011 15.46566 -2.157789 1.010684 1.9813 0.7830639 7.047327 -7.321597 2.698099 23.65009 5.290783 1.791989 -15.6089 8.096283 1.224406 -13.39526 8.71939 89.64991 24.73094 -20.89974 1.637999e-06 5.843608e-07 9.393411 -15.40094 10.08894 6.010988 7.192012 -20.66301 -3.925957 -81.43391 29.11156 2.643559 5.842455e-07 1.129014e-06 -26.03243 0.05173495 10.53065 13.10013
52.13157 104.6287 298.0871 2.317445 -6.066533 13.4633 1.69967 -24.58426 2.627675 3.185132e-06 20.86147 -8.576237e-07 -2.638664 -10.57723 -9.704294 -4.529565 19.12412 -11.28688 3.748356e-06 16.56307 -1.56716e-05 -6.989949 -20.35446 14.80881 -2.045868 0.707199 1.6738 0.9369254 6.720079 -7.497863 2.815773 23.88277 5.120028 1.7035 -15.75283 8.139906 1.140604 -12.74963 8.475974 90.5573 24.89824 -21.66726 3.296354e-06 -4.499302e-08 8.151917 -14.91186 10.14231 5.575922 7.072261 -20.76311 -3.765246 -81.2098 29.35058 1.793389 -1.724585e-07 2.15453e-06 -26.14657 0.3469045 10.87873 12.78226
52.9496 104.1658 303.9847 2.112142 -6.148994 13.80251 2.069429 -23.63755 2.871767 2.018237e-06 22.51937 2.665098e-08 -3.418673 -10.18758 -9.98567 -4.401998 20.12813 -11.40844 1.591881e-06 20.90901 -1.997523e-05 -7.625877 -18.81312 14.29718 -1.826176 0.4265143 1.455868 1.023841 6.592058 -7.538833 2.977617 24.04822 4.860957 1.58358 -15.92042 8.164929 1.164257 -12.30896 8.316155 91.26752 24.98684 -22.0177 4.985851e-06 -8.097012e-07 7.339313 -14.29389 10.275 5.157352 6.665695 -20.5106 -3.63072 -81.4988 29.68823 2.023226 -1.364997e-06 2.962111e-06 -25.1107 0.3891407 11.15795 12.80408
53.80731 104.2761 310.1476 1.925758 -6.47161 14.04807 2.721866 -21.48235 3.510949 1.039227e-06 24.80796 6.81875e-07 -4.16964 -9.754851 -10.20425 -4.20582 19.95619 -11.55196 -5.55262e-08 27.14906 -2.248655e-05 -8.378013 -16.69357 14.11577 -1.498115 0.2225765 1.441125 1.053647 6.644787 -7.397863 3.187355 24.21213 4.554157 1.490615 -16.10756 8.166993 1.233714 -12.09021 8.278976 91.82396 24.95581 -22.00107 6.227358e-06 -1.442099e-06 6.963515 -13.67914 10.38993 4.77905 6.13397 -20.03302 -3.488432 -82.49871 30.09963 3.228344 -2.557275e-06 3.363184e-06 -23.3271 0.2163452 11.37912 13.11251
54.63109 104.8817 316.213 1.936012 -7.118072 14.13551 3.447348 -18.09144 4.401614 8.431449e-07 26.84685 -2.296709e-07 -4.96541 -9.770347 -10.1939 -4.01711 17.6519 -11.70323 2.477297e-07 34.42006 -2.203362e-05 -8.719341 -14.41714 14.78615 -1.227043 0.2944786 1.742201 1.012357 6.950985 -7.01091 3.341664 24.46446 4.311781 1.496256 -16.203 8.098347 1.388094 -12.20054 8.473378 91.70225 25.0567 -21.3665 6.734572e-06 -1.265795e-06 7.07896 -13.15903 10.2981 4.513561 5.59014 -19.46797 -3.382879 -83.94518 30.47596 5.164697 -3.346668e-06 3.178711e-06 -21.0994 -0.007774173 11.63426 13.44819
55.34754 105.7438 321.875 2.12604 -7.980886 14.00671 4.062609 -14.1082 5.258509 1.850023e-06 27.48686 -2.608447e-06 -5.643612 -10.3888 -9.994503 -3.814541 13.61577 -11.73851 1.623705e-06 40.80147 -1.799908e-05 -8.721362 -12.54362 16.14703 -1.051748 0.6726761 2.280172 0.9038857 7.386166 -6.4274 3.440373 24.78771 4.145191 1.570333 -16.13013 7.977841 1.493096 -12.62804 8.823247 90.94849 25.11733 -20.14189 6.396024e-06 -2.914559e-07 7.70958 -12.92807 10.01172 4.473788 5.21559 -18.93017 -3.31769 -85.5779 30.70938 7.342206 -3.438372e-06 2.538965e-06 -18.91245 -0.2532626 11.88158 13.74033
55.99821 106.8217 327.2898 2.307551 -8.591589 13.62763 4.453623 -9.503714 5.841717 2.028009e-06 27.01225 -3.33593e-06 -6.051652 -10.91808 -9.519983 -3.695163 9.042443 -11.61418 8.359982e-07 46.37248 -1.310694e-05 -8.82081 -10.88093 17.64539 -0.9747451 0.9178206 2.983852 0.748349 7.741437 -5.769363 3.526489 25.14588 4.067825 1.75066 -16.13149 7.850156 1.544892 -13.12417 9.164288 90.25899 25.18748 -18.8312 5.699269e-06 5.803303e-07 8.467565 -13.12512 9.627884 4.678894 5.010515 -18.45441 -3.160416 -87.57568 30.84069 9.643474 -3.140748e-06 1.805574e-06 -16.97936 -0.5112221 12.06765 14.08775
56.5487 107.8314 332.2496 2.485896 -9.020109 13.01996 4.579533 -5.127831 6.145734 3.667293e-06 25.56026 -5.305703e-06 -6.459902 -11.65611 -8.729233 -3.610359 3.938361 -11.57924 -6.247314e-07 48.74355 -4.354875e-06 -8.333089 -9.883551 19.42223 -1.067269 1.237647 3.695617 0.6046852 8.058268 -5.077904 3.483783 25.41574 4.129062 1.982677 -16.18493 7.703428 1.581751 -13.85329 9.532013 88.85376 25.43637 -17.06278 4.839922e-06 1.901889e-06 9.476425 -13.43968 9.078952 5.123479 4.97226 -18.04147 -3.001103 -89.21814 30.75839 11.88298 -2.544191e-06 1.205519e-06 -15.19175 -0.5641418 12.37991 14.1165
